<?xml version="1.0" standalone="no"?>
<!DOCTYPE svg PUBLIC "-//W3C//DTD SVG 20010904//EN"
 "http://www.w3.org/TR/2001/REC-SVG-20010904/DTD/svg10.dtd">
<svg version="1.0" xmlns="http://www.w3.org/2000/svg"
 width="1047.000000pt" height="1047.000000pt" viewBox="0 0 1047.000000 1047.000000"
 preserveAspectRatio="xMidYMid meet">
<metadata>
Created by potrace 1.14, written by Peter Selinger 2001-2017
</metadata>
<g transform="translate(0.000000,1047.000000) scale(0.100000,-0.100000)"
fill="#000000" stroke="none">
<path d="M4977 10464 c-1 -2 -48 -5 -103 -8 -56 -3 -117 -8 -135 -11 -19 -3
-59 -7 -89 -10 -67 -6 -126 -13 -160 -20 -14 -3 -45 -7 -70 -10 -25 -3 -56 -7
-70 -10 -63 -13 -77 -16 -110 -21 -19 -3 -91 -19 -160 -35 -69 -17 -136 -33
-150 -35 -27 -5 -85 -22 -215 -61 -673 -204 -1296 -544 -1855 -1012 -122 -102
-443 -417 -551 -540 -35 -40 -69 -79 -74 -85 -32 -35 -170 -214 -225 -291 -36
-49 -67 -92 -70 -95 -15 -14 -177 -271 -240 -380 -75 -131 -200 -376 -239
-470 -13 -30 -34 -78 -47 -107 -13 -28 -24 -55 -24 -58 0 -4 -6 -21 -14 -38
-65 -148 -200 -576 -230 -732 -3 -11 -14 -63 -25 -115 -23 -108 -48 -243 -56
-310 -3 -25 -8 -56 -10 -70 -2 -14 -7 -50 -10 -80 -4 -30 -8 -66 -10 -80 -3
-22 -11 -129 -21 -270 -4 -73 -4 -438 0 -525 24 -436 79 -767 200 -1205 128
-465 386 -1018 679 -1455 82 -121 287 -397 317 -425 3 -3 34 -39 70 -80 356
-413 805 -791 1255 -1059 66 -39 127 -76 135 -81 37 -25 300 -157 424 -214
195 -90 623 -244 750 -270 12 -3 53 -14 92 -25 39 -11 84 -23 100 -25 39 -8
58 -12 134 -29 36 -8 88 -18 115 -23 28 -4 57 -9 65 -10 8 -2 31 -6 50 -9 19
-2 44 -6 55 -9 11 -2 45 -7 75 -11 30 -3 66 -8 80 -10 133 -19 429 -37 612
-38 80 0 387 12 458 18 102 8 226 24 400 51 25 3 54 8 65 9 155 22 513 113
747 189 248 81 658 261 893 393 232 131 550 344 720 484 28 23 248 211 261
224 119 109 303 298 414 425 133 152 209 248 321 407 408 575 702 1236 844
1893 2 8 8 36 14 61 12 54 58 325 65 384 5 40 13 113 21 190 27 259 27 737 0
1020 -7 73 -39 310 -50 370 -3 17 -12 66 -21 110 -40 216 -151 624 -208 765
-8 19 -29 73 -46 120 -17 47 -37 99 -44 115 -8 17 -21 48 -31 70 -57 130 -196
414 -233 475 -12 19 -25 42 -29 50 -25 55 -268 432 -307 477 -16 18 -26 31
-75 98 -255 345 -656 743 -1031 1023 -175 130 -178 132 -188 132 -6 0 -12 4
-14 8 -3 8 -205 142 -214 142 -3 0 -28 15 -57 33 -117 75 -414 226 -587 300
-19 8 -62 26 -95 40 -67 29 -369 137 -395 142 -3 0 -27 8 -55 18 -110 36 -408
109 -560 136 -33 6 -70 13 -81 15 -39 8 -94 16 -142 21 -26 3 -60 8 -75 11
-15 3 -44 7 -65 9 -81 7 -179 16 -227 22 -51 6 -632 12 -638 7z"/>
</g>
</svg>
