<?xml version="1.0" encoding="UTF-8" standalone="no"?>
<svg
   viewBox="0 0 16 16"
   version="1.1"
   id="svg4"
   sodipodi:docname="icon-manual.svg"
   inkscape:version="1.1 (c68e22c387, 2021-05-23)"
   xmlns:inkscape="http://www.inkscape.org/namespaces/inkscape"
   xmlns:sodipodi="http://sodipodi.sourceforge.net/DTD/sodipodi-0.dtd"
   xmlns="http://www.w3.org/2000/svg"
   xmlns:svg="http://www.w3.org/2000/svg">
  <defs
     id="defs8" />
  <sodipodi:namedview
     id="namedview6"
     pagecolor="#ffffff"
     bordercolor="#666666"
     borderopacity="1.0"
     inkscape:pageshadow="2"
     inkscape:pageopacity="0.0"
     inkscape:pagecheckerboard="0"
     showgrid="false"
     inkscape:zoom="47.0625"
     inkscape:cx="20.579017"
     inkscape:cy="2.6560425"
     inkscape:window-width="2736"
     inkscape:window-height="1714"
     inkscape:window-x="-12"
     inkscape:window-y="-12"
     inkscape:window-maximized="1"
     inkscape:current-layer="svg4" />
  <g
     id="g8"
     transform="matrix(0.03740304,0,0,0.03876973,0,-0.11150243)">
    <g
       id="g6">
      <path
         id="path4"
         d="m 236.812,204.111 c 16.552,-16.55 38.584,-25.665 62.041,-25.665 23.457,0 45.49,9.114 62.041,25.665 14.13,14.128 23.068,32.854 25.173,52.733 1.618,15.289 -0.81,30.8 -7.021,44.875 l 0.211,0.211 c 6.553,1.604 12.537,4.972 17.312,9.744 l 3.432,3.433 V 75.095 c 0,-3.779 -1.871,-7.315 -5,-9.44 C 364.355,44.835 329.549,33.828 294.332,33.828 261.519,33.828 229.062,43.389 200,61.539 170.928,43.389 138.463,33.828 105.65,33.828 70.443,33.828 35.636,44.834 4.998,65.655 1.871,67.781 0,71.317 0,75.095 v 267.551 c 0,4.229 2.336,8.11 6.074,10.091 3.738,1.979 8.258,1.728 11.758,-0.647 26.836,-18.235 57.207,-27.879 87.822,-27.879 30.617,0 60.994,9.644 87.84,27.881 1.922,1.311 4.164,1.974 6.408,1.974 0.012,0 0.025,-0.002 0.039,-0.002 2.301,0.03 4.6,-0.634 6.566,-1.974 11.48,-7.801 23.611,-14.016 36.129,-18.59 -2.004,-1.677 -3.953,-3.438 -5.821,-5.308 -34.212,-34.209 -34.212,-89.872 -0.003,-124.081 z m -3.78,-93.344 c 21.408,-14.636 50.663,-16.821 66.198,-16.821 15.534,0 44.791,2.186 66.198,16.821 5.271,3.603 6.621,10.794 3.021,16.063 -3.603,5.269 -10.797,6.621 -16.064,3.019 -11.887,-8.127 -31.262,-12.789 -53.153,-12.789 -21.893,0 -41.269,4.661 -53.154,12.789 -1.994,1.363 -4.266,2.018 -6.512,2.018 -3.689,0 -7.313,-1.761 -9.554,-5.036 -3.601,-5.269 -2.248,-12.461 3.02,-16.064 z m 0,50 c 21.408,-14.636 50.663,-16.821 66.198,-16.821 15.534,0 44.791,2.186 66.198,16.821 5.271,3.603 6.621,10.794 3.021,16.063 -3.603,5.269 -10.797,6.621 -16.064,3.019 -11.887,-8.127 -31.262,-12.789 -53.153,-12.789 -21.893,0 -41.269,4.661 -53.154,12.789 -1.994,1.363 -4.266,2.018 -6.512,2.018 -3.689,0 -7.313,-1.761 -9.554,-5.036 -3.601,-5.269 -2.248,-12.461 3.02,-16.064 z m -63.046,116.064 c -3.602,5.27 -10.795,6.621 -16.064,3.02 -11.887,-8.128 -31.262,-12.789 -53.154,-12.789 -21.892,0 -41.268,4.661 -53.154,12.789 -1.994,1.362 -4.266,2.019 -6.512,2.019 -3.689,0 -7.313,-1.761 -9.553,-5.036 -3.602,-5.27 -2.25,-12.461 3.02,-16.062 21.408,-14.638 50.664,-16.821 66.199,-16.821 15.535,0 44.791,2.187 66.199,16.821 5.269,3.598 6.62,10.79 3.019,16.059 z m 0,-50 c -3.602,5.27 -10.795,6.621 -16.064,3.02 -11.887,-8.128 -31.262,-12.789 -53.154,-12.789 -21.892,0 -41.268,4.661 -53.154,12.789 -1.994,1.362 -4.266,2.019 -6.512,2.019 -3.689,0 -7.313,-1.761 -9.553,-5.036 -3.602,-5.27 -2.25,-12.461 3.02,-16.063 21.408,-14.636 50.664,-16.821 66.199,-16.821 15.535,0 44.791,2.186 66.199,16.821 5.269,3.599 6.62,10.791 3.019,16.06 z m 0,-50 c -3.602,5.269 -10.795,6.621 -16.064,3.019 -11.887,-8.127 -31.262,-12.789 -53.154,-12.789 -21.892,0 -41.268,4.661 -53.154,12.789 -1.994,1.363 -4.266,2.018 -6.512,2.018 -3.689,0 -7.313,-1.761 -9.553,-5.036 -3.602,-5.269 -2.25,-12.461 3.02,-16.063 21.408,-14.636 50.664,-16.821 66.199,-16.821 15.535,0 44.791,2.186 66.199,16.821 5.269,3.601 6.62,10.793 3.019,16.062 z m 0,-50 c -3.602,5.269 -10.795,6.621 -16.064,3.019 -11.887,-8.127 -31.262,-12.789 -53.154,-12.789 -21.892,0 -41.268,4.661 -53.154,12.789 -1.994,1.363 -4.266,2.018 -6.512,2.018 -3.689,0 -7.313,-1.761 -9.553,-5.036 -3.602,-5.269 -2.25,-12.461 3.02,-16.063 21.408,-14.636 50.664,-16.821 66.199,-16.821 15.535,0 44.791,2.186 66.199,16.821 5.269,3.601 6.62,10.793 3.019,16.062 z m 251.518,230.575 -34.771,-34.771 c -3.839,-3.836 -8.771,-5.905 -13.789,-6.222 l -11.812,-11.81 c 17.547,-27.896 14.189,-65.271 -10.076,-89.535 -28.166,-28.167 -73.993,-28.166 -102.162,0 -28.162,28.166 -28.162,73.995 0.004,102.161 24.265,24.266 61.64,27.622 89.531,10.076 l 11.813,11.81 c 0.313,5.021 2.385,9.953 6.223,13.79 l 34.771,34.771 c 8.358,8.359 21.909,8.357 30.27,0 8.355,-8.358 8.357,-21.91 -0.002,-30.27 z m -85.58,-55.31 c -19.82,19.819 -52.07,19.819 -71.892,0 -19.819,-19.82 -19.819,-52.069 0,-71.891 19.818,-19.82 52.066,-19.82 71.892,10e-4 19.818,19.82 19.818,52.07 0,71.89 z" />
    </g>
  </g>
</svg>
