<?xml version="1.0" encoding="UTF-8" standalone="no"?>
<svg
   viewBox="0 0 16 16"
   fill-rule="evenodd"
   clip-rule="evenodd"
   stroke-linejoin="round"
   stroke-miterlimit="1.414"
   version="1.1"
   id="svg19"
   sodipodi:docname="icon-researchgate.svg"
   inkscape:version="1.1 (c68e22c387, 2021-05-23)"
   xmlns:inkscape="http://www.inkscape.org/namespaces/inkscape"
   xmlns:sodipodi="http://sodipodi.sourceforge.net/DTD/sodipodi-0.dtd"
   xmlns="http://www.w3.org/2000/svg"
   xmlns:svg="http://www.w3.org/2000/svg">
  <defs
     id="defs23" />
  <sodipodi:namedview
     id="namedview21"
     borderopacity="1.0"
     inkscape:pageshadow="2"
     inkscape:pageopacity="0.0"
     inkscape:pagecheckerboard="0"
     showgrid="false"
     inkscape:zoom="90.509668"
     inkscape:cx="6.3584368"
     inkscape:cy="10.297242"
     inkscape:window-width="2736"
     inkscape:window-height="1714"
     inkscape:window-x="-12"
     inkscape:window-y="-12"
     inkscape:window-maximized="1"
     inkscape:current-layer="svg19" />
  <path
     id="path124"
     style="clip-rule:evenodd;fill-rule:nonzero;stroke-width:0.497406;image-rendering:optimizeQuality;shape-rendering:geometricPrecision;text-rendering:geometricPrecision"
     class="fil0"
     d="M 7.9960938 0.021484375 C 3.5940486 0.021484375 0.02734375 3.5940481 0.02734375 7.9960938 C 0.02734375 12.39814 3.5940487 15.96875 7.9960938 15.96875 C 12.393166 15.96875 15.964844 12.39814 15.964844 7.9960938 C 15.964844 3.5940481 12.393166 0.021484375 7.9960938 0.021484375 z M 11.746094 3.890625 C 12.245253 3.8696781 12.766827 4.0329985 13.033203 4.3691406 C 13.236157 4.6228326 13.219381 4.7025454 12.9375 4.7871094 C 12.717634 4.8603984 12.718579 4.8592038 12.515625 4.65625 C 12.036429 4.1939668 11.207125 4.363352 11.060547 4.9609375 C 10.987257 5.2259047 10.993156 6.3478705 11.066406 6.6015625 C 11.263722 7.3175377 12.453296 7.3175377 12.65625 6.6015625 C 12.780277 6.144917 12.751926 6.1102193 12.205078 6.0820312 C 11.940111 6.0707562 11.939453 6.0714291 11.939453 5.8515625 C 11.939453 5.6373337 11.940855 5.6380066 12.572266 5.6210938 C 13.389718 5.6041808 13.377354 5.5918675 13.337891 6.1894531 C 13.287151 6.9392538 13.084222 7.3013962 12.59375 7.515625 C 12.272407 7.6509273 11.832397 7.7006855 11.494141 7.6386719 C 10.620314 7.4751816 10.333805 6.9400274 10.378906 5.5644531 C 10.401456 4.8033772 10.4627 4.5950025 10.755859 4.2792969 C 10.982773 4.0351183 11.357859 3.906917 11.746094 3.890625 z M 6.4121094 6.1171875 C 8.0358039 6.1084007 8.4301381 6.2237073 8.9628906 6.6972656 C 9.5999396 7.2666632 9.6909778 8.1340777 9.1835938 8.8613281 C 8.9580897 9.1883088 8.5077341 9.5383039 8.1582031 9.6679688 C 7.9947121 9.7299827 7.859375 9.7977621 7.859375 9.8203125 C 7.859375 9.8879635 8.3778758 10.626852 8.6992188 11.021484 C 9.5561338 12.064439 10.018851 12.469723 10.498047 12.59375 C 10.79684 12.67268 10.881439 12.757719 10.796875 12.904297 C 10.706675 13.056512 10.254544 13.089533 9.7246094 12.982422 C 8.9184324 12.824569 8.4401559 12.358276 7.2167969 10.542969 C 6.8108899 9.9341079 6.8106476 9.9324845 6.4160156 9.9042969 C 5.8353436 9.8648339 5.8795714 9.7651864 5.8964844 11.044922 C 5.9190344 12.499422 5.9021475 12.464529 6.7421875 12.605469 C 6.9620535 12.639299 6.9785156 12.655493 6.9785156 12.785156 C 6.9785156 12.931733 6.9790041 12.932083 5.5019531 12.943359 C 4.1151041 12.954629 4.0242818 12.949764 3.9960938 12.865234 C 3.9397138 12.701743 4.0256491 12.622782 4.3300781 12.566406 C 4.6739711 12.504396 4.8533365 12.363732 4.8984375 12.126953 C 4.9209875 12.036753 4.9272956 10.818047 4.9160156 9.4199219 C 4.8991056 6.4827325 4.9337851 6.6574521 4.3925781 6.5390625 C 4.0543221 6.4657735 3.9470865 6.3872555 3.9921875 6.2519531 C 4.0260175 6.1617511 4.0976537 6.1570944 5.6367188 6.1289062 C 5.9228269 6.1232686 6.180153 6.1184428 6.4121094 6.1171875 z M 6.6640625 6.6523438 C 5.9142615 6.6523438 5.9136188 6.6527926 5.9023438 7.9550781 C 5.8910637 8.6710533 5.8971925 9.2903931 5.9140625 9.3242188 C 5.9648025 9.4426084 7.2337873 9.3813957 7.5664062 9.2460938 C 8.6939252 8.7838106 8.7781742 7.2339894 7.7070312 6.7773438 C 7.4307882 6.6589541 7.3574865 6.6523437 6.6640625 6.6523438 z " />
</svg>
