<?xml version="1.0" encoding="UTF-8" standalone="no"?>
<svg
   viewBox="0 0 16 16"
   version="1.1"
   id="svg4"
   sodipodi:docname="icon-manuals - Copy.svg"
   inkscape:version="1.1 (c68e22c387, 2021-05-23)"
   xmlns:inkscape="http://www.inkscape.org/namespaces/inkscape"
   xmlns:sodipodi="http://sodipodi.sourceforge.net/DTD/sodipodi-0.dtd"
   xmlns="http://www.w3.org/2000/svg"
   xmlns:svg="http://www.w3.org/2000/svg">
  <defs
     id="defs8" />
  <sodipodi:namedview
     id="namedview6"
     pagecolor="#ffffff"
     bordercolor="#666666"
     borderopacity="1.0"
     inkscape:pageshadow="2"
     inkscape:pageopacity="0.0"
     inkscape:pagecheckerboard="0"
     showgrid="false"
     inkscape:zoom="33.278213"
     inkscape:cx="-11.704354"
     inkscape:cy="15.295292"
     inkscape:window-width="2736"
     inkscape:window-height="1714"
     inkscape:window-x="-12"
     inkscape:window-y="-12"
     inkscape:window-maximized="1"
     inkscape:current-layer="svg4" />
  <path
     d="M 8,0.1 C 3.6439894,0.1 0.1,3.6439894 0.1,7.9999996 0.1,12.356011 3.6439894,15.9 8,15.9 c 4.356011,0 7.9,-3.543989 7.9,-7.9000004 C 15.9,3.6439894 12.356011,0.1 8,0.1 Z M 6.0926042,4.5369165 C 6.5738229,4.0268333 7.2510207,3.7461561 8,3.7461561 c 0.7489793,0 1.420104,0.2825732 1.9032187,0.7953128 0.4895733,0.519583 0.7277083,1.2176665 0.6715003,1.9681665 C 10.462292,7.9999996 9.3076771,9.215385 8,9.215385 6.6923229,9.215385 5.5354271,7.9999996 5.4252814,6.5092503 5.3694876,5.7526771 5.6072085,5.0523125 6.0926042,4.5369165 Z M 8,14.684615 A 6.6652452,6.6652452 0 0 1 3.2144269,12.663281 4.6682164,4.6682164 0 0 1 4.5490627,11.393198 C 5.5171979,10.772594 6.7424583,10.430771 8,10.430771 c 1.2575418,0 2.482802,0.341823 3.449792,0.962427 A 4.6666971,4.6666971 0 0 1 12.785573,12.663281 6.6637259,6.6637259 0 0 1 8,14.684615 Z"
     id="path4"
     style="stroke-width:0.0379808" />
</svg>
