<?xml version="1.0" encoding="UTF-8" standalone="no"?>
<svg
   viewBox="0 0 16 16"
   version="1.1"
   id="svg4"
   sodipodi:docname="icon-cran.svg"
   inkscape:version="1.1 (c68e22c387, 2021-05-23)"
   xmlns:inkscape="http://www.inkscape.org/namespaces/inkscape"
   xmlns:sodipodi="http://sodipodi.sourceforge.net/DTD/sodipodi-0.dtd"
   xmlns="http://www.w3.org/2000/svg"
   xmlns:svg="http://www.w3.org/2000/svg">
  <defs
     id="defs8">
    <linearGradient
       id="gradientFill-2"
       x1="301.02603"
       x2="703.0675"
       y1="151.4006"
       y2="553.44208"
       gradientUnits="userSpaceOnUse"
       spreadMethod="pad"
       gradientTransform="matrix(0.02196546,0,0,0.02241382,-0.02010279,1.9334345)">
      <stop
         offset="0"
         stop-color="rgb(39,109,195)"
         stop-opacity="1"
         id="stop7" />
      <stop
         offset="1"
         stop-color="rgb(22,92,170)"
         stop-opacity="1"
         id="stop9" />
    </linearGradient>
    <linearGradient
       id="gradientFill-1"
       x1="0.74144253"
       x2="590.86259"
       y1="3.6658269"
       y2="593.78698"
       gradientUnits="userSpaceOnUse"
       spreadMethod="pad"
       gradientTransform="matrix(0.02711308,0,0,0.01815839,-0.02010279,1.9334345)">
      <stop
         offset="0"
         stop-color="rgb(203,206,208)"
         stop-opacity="1"
         id="stop2" />
      <stop
         offset="1"
         stop-color="rgb(132,131,139)"
         stop-opacity="1"
         id="stop4" />
    </linearGradient>
  </defs>
  <sodipodi:namedview
     id="namedview6"
     pagecolor="#ffffff"
     bordercolor="#666666"
     borderopacity="1.0"
     inkscape:pageshadow="2"
     inkscape:pageopacity="0.0"
     inkscape:pagecheckerboard="0"
     showgrid="false"
     inkscape:zoom="47.0625"
     inkscape:cx="6.6613546"
     inkscape:cy="8.9243028"
     inkscape:window-width="2736"
     inkscape:window-height="1714"
     inkscape:window-x="-12"
     inkscape:window-y="-12"
     inkscape:window-maximized="1"
     inkscape:current-layer="svg4" />
  <path
     id="path14"
     style="stroke-width:0.0221885;fill-opacity:1"
     d="M 8 2 C 3.5817355 2 0 4.3983625 0 7.3574219 C 0 9.9944019 2.8456639 12.18494 6.5917969 12.630859 L 6.5917969 14.337891 L 9.3203125 14.335938 L 9.3203125 12.642578 C 9.9896112 12.568109 10.630245 12.438188 11.232422 12.259766 L 12.339844 14.337891 L 15.423828 14.335938 L 13.566406 11.205078 C 15.066374 10.231231 16 8.8670497 16 7.3574219 C 16 4.3983625 12.418287 2 8 2 z M 9.2246094 4.0957031 C 12.582862 4.0957031 15.060547 5.2169399 15.060547 7.7578125 C 15.060547 9.1383028 14.329174 10.09911 13.123047 10.689453 C 13.057566 10.646076 12.995353 10.611234 12.949219 10.587891 C 12.667913 10.445551 12.183594 10.298828 12.183594 10.298828 C 12.183594 10.298828 14.568359 10.120996 14.568359 7.7460938 C 14.568359 5.3711916 12.072266 5.3261719 12.072266 5.3261719 L 6.5917969 5.3261719 L 6.5917969 11.054688 C 4.5538826 10.463106 3.1445312 9.2117285 3.1445312 7.7578125 C 3.1445313 5.7348862 5.8663343 4.0957031 9.2246094 4.0957031 z M 9.34375 7.28125 L 10.996094 7.28125 C 10.996094 7.28125 11.761719 7.2405852 11.761719 8.0332031 C 11.761719 8.8102044 10.996094 8.8125 10.996094 8.8125 L 9.34375 8.8125 L 9.34375 7.28125 z M 9.3203125 10.808594 L 10.052734 10.808594 C 10.202617 10.808594 10.26833 10.851884 10.419922 10.974609 C 10.506294 11.044541 10.617145 11.196389 10.710938 11.335938 C 10.268764 11.387322 9.8050619 11.414822 9.3203125 11.417969 L 9.3203125 10.808594 z " />
</svg>
