<?xml version="1.0" encoding="UTF-8" standalone="no"?>
<svg
   viewBox="313.1 3.7 16 16"
   version="1.1"
   id="svg4"
   sodipodi:docname="icon-cv.svg"
   inkscape:version="1.1 (c68e22c387, 2021-05-23)"
   xmlns:inkscape="http://www.inkscape.org/namespaces/inkscape"
   xmlns:sodipodi="http://sodipodi.sourceforge.net/DTD/sodipodi-0.dtd"
   xmlns="http://www.w3.org/2000/svg"
   xmlns:svg="http://www.w3.org/2000/svg">
  <defs
     id="defs8" />
  <sodipodi:namedview
     id="namedview6"
     pagecolor="#ffffff"
     bordercolor="#666666"
     borderopacity="1.0"
     inkscape:pageshadow="2"
     inkscape:pageopacity="0.0"
     inkscape:pagecheckerboard="0"
     showgrid="false"
     inkscape:zoom="23.53125"
     inkscape:cx="17.317397"
     inkscape:cy="-6.9269588"
     inkscape:window-width="2736"
     inkscape:window-height="1714"
     inkscape:window-x="-12"
     inkscape:window-y="-12"
     inkscape:window-maximized="1"
     inkscape:current-layer="svg4" />
  <g
     id="Layer_x0020_1"
     style="clip-rule:evenodd;fill-rule:evenodd;image-rendering:optimizeQuality;shape-rendering:geometricPrecision;text-rendering:geometricPrecision"
     transform="matrix(0.01920412,0,0,0.01920412,313.11079,3.6602286)">
    <path
       class="fil0"
       d="m 539.75,794.68 c 27.15,0 27.15,41.29 0,41.29 H 42.28 c -11.4,0 -20.64,-9.25 -20.64,-20.65 V 193.63 c 0,-5.7 2.31,-10.87 6.04,-14.6 L 189.98,16.74 c 4.03,-4.03 9.31,-6.05 14.59,-6.05 h 466.89 c 11.4,0 20.65,9.25 20.65,20.65 V 392.7 c 0,27.16 -41.29,27.16 -41.29,0 V 51.98 H 213.12 L 62.93,202.18 v 592.5 z M 188.54,612.7 c -27.16,0 -27.16,-41.29 0,-41.29 h 306.67 c 27.16,0 27.16,41.29 0,41.29 z m 0,-274.68 c -27.16,0 -27.16,-41.29 0,-41.29 h 306.67 c 27.16,0 27.16,41.29 0,41.29 z m 0,91.56 c -27.16,0 -27.16,-41.29 0,-41.29 h 306.67 c 27.16,0 27.16,41.29 0,41.29 z m 0,91.56 c -27.16,0 -27.16,-41.29 0,-41.29 h 306.67 c 27.16,0 27.16,41.29 0,41.29 z m 0,-274.68 c -27.16,0 -27.16,-41.29 0,-41.29 h 306.67 c 27.16,0 27.16,41.29 0,41.29 z m 496.57,238.25 c 49.84,0 90.24,40.4 90.24,90.24 0,18.1 -5.33,34.95 -14.5,49.07 37.57,24.93 61.47,66.08 64.13,111.2 1.59,27.06 -39.55,29.47 -41.13,2.42 -2.11,-35.69 -22.61,-67.48 -54.13,-84.24 -13.16,7.5 -28.38,11.78 -44.61,11.78 -17.56,0 -33.95,-5.01 -47.81,-13.69 -33.44,16.12 -55.6,49.04 -57.79,86.15 -1.59,27.05 -42.72,24.64 -41.13,-2.42 2.79,-47.18 28.75,-89.88 69.08,-114.28 -7.99,-13.47 -12.58,-29.19 -12.58,-45.99 0,-49.83 40.4,-90.24 90.23,-90.24 z m 0,41.29 c -27.03,0 -48.94,21.92 -48.94,48.95 0,27.03 21.91,48.94 48.94,48.94 27.03,0 48.95,-21.91 48.95,-48.94 0,-27.03 -21.91,-48.95 -48.95,-48.95 z"
       id="path6" />
  </g>
</svg>
