<?xml version="1.0" encoding="UTF-8" standalone="no"?>
<svg
   viewBox="0 0 16 16"
   fill-rule="evenodd"
   clip-rule="evenodd"
   stroke-linejoin="round"
   stroke-miterlimit="1.414"
   version="1.1"
   id="svg826"
   sodipodi:docname="icon-orchid.svg"
   inkscape:version="1.1 (c68e22c387, 2021-05-23)"
   xmlns:inkscape="http://www.inkscape.org/namespaces/inkscape"
   xmlns:sodipodi="http://sodipodi.sourceforge.net/DTD/sodipodi-0.dtd"
   xmlns="http://www.w3.org/2000/svg"
   xmlns:svg="http://www.w3.org/2000/svg">
  <defs
     id="defs830" />
  <sodipodi:namedview
     id="namedview828"
     pagecolor="#ffffff"
     bordercolor="#666666"
     borderopacity="1.0"
     inkscape:pageshadow="2"
     inkscape:pageopacity="0.0"
     inkscape:pagecheckerboard="0"
     showgrid="false"
     inkscape:zoom="44.1875"
     inkscape:cx="8"
     inkscape:cy="8.0113154"
     inkscape:window-width="2736"
     inkscape:window-height="1714"
     inkscape:window-x="-12"
     inkscape:window-y="-12"
     inkscape:window-maximized="1"
     inkscape:current-layer="svg826" />
  <path
     id="path4"
     style="stroke-width:0.0617187"
     class="st0"
     d="M 8 0.099609375 C 3.6364844 0.099609375 0.099609375 3.6364845 0.099609375 8 C 0.099609375 12.363515 3.6364844 15.900391 8 15.900391 C 12.363515 15.900391 15.900391 12.363515 15.900391 8 C 15.900391 3.6364845 12.363515 0.099609375 8 0.099609375 z M 4.9511719 2.9824219 C 5.2967969 2.9824219 5.5742187 3.2660156 5.5742188 3.6054688 C 5.5742188 3.9449219 5.2967969 4.2285156 4.9511719 4.2285156 C 4.605547 4.2285156 4.328125 3.9449219 4.328125 3.6054688 C 4.328125 3.2598437 4.605547 2.9824219 4.9511719 2.9824219 z M 4.4765625 4.9824219 L 5.4257812 4.9824219 L 5.4257812 7.96875 L 5.4257812 11.591797 L 4.4765625 11.591797 L 4.4765625 4.9824219 z M 6.8203125 4.9824219 L 9.3886719 4.9824219 C 11.832734 4.9824219 12.90625 6.7295312 12.90625 8.2910156 C 12.90625 9.9882812 11.579063 11.597656 9.4003906 11.597656 L 6.8203125 11.597656 L 6.8203125 4.9824219 z M 7.7714844 5.8398438 L 7.7714844 10.740234 L 9.2832031 10.740234 C 11.437187 10.740234 11.931641 9.1057031 11.931641 8.2910156 C 11.931641 6.9640625 11.085938 5.8398437 9.234375 5.8398438 L 7.7714844 5.8398438 z " />
</svg>
